<svg width="15" height="15" fill="currentColor" xmlns="http://www.w3.org/2000/svg"><path d="M8.723 9.052c.442-.143 1.01.944 1.612 1.36.453.316.8.248.8.248l1.608-.023s.84-.052.444-.72c-.033-.055-.233-.495-1.197-1.4-1.008-.945-.872-.792.342-2.427.74-.997 1.035-1.606.942-1.866-.088-.25-.632-.184-.632-.184l-1.811.012c-.177 0-.326.055-.394.239-.002.002-.288.771-.67 1.425C8.961 7.1 8.64 7.174 8.506 7.087c-.306-.2-.229-.804-.229-1.233 0-1.342.2-1.9-.391-2.045-.198-.049-.343-.08-.847-.085-.645-.01-1.192 0-1.502.153-.206.103-.364.33-.268.342.12.017.39.074.535.272.185.255.18.828.18.828s.106 1.58-.25 1.775c-.245.135-.58-.14-1.298-1.396-.367-.643-.645-1.353-.645-1.353s-.054-.132-.15-.204c-.117-.086-.279-.113-.279-.113l-1.72.01s-.258.008-.353.122c-.084.101-.007.31-.007.31S2.63 7.655 4.155 9.26c1.398 1.474 2.987 1.376 2.987 1.376h.72s.218-.025.329-.144c.103-.111.099-.32.099-.32s-.015-.977.433-1.12Z"/></svg>
