<svg width="120" height="120" fill="none" xmlns="http://www.w3.org/2000/svg"><path fill="url(#a)" d="M0 0h120v120H0z"/><path d="M59.446 97c-4.02 0-7.508-.618-10.461-1.853-2.954-1.236-5.21-3.418-6.77-6.548C40.738 85.47 40 81.063 40 75.381v-4.2H52.062v5.188c0 3.46.328 6.136.984 8.03.657 1.894 1.56 3.212 2.708 3.953 1.149.66 2.461.989 3.938.989 2.38 0 4.267-.783 5.662-2.348 1.477-1.647 2.215-4.694 2.215-9.142 0-3.294-.492-5.765-1.477-7.412-.984-1.647-2.543-2.965-4.677-3.953-2.05-1.07-4.718-2.265-8-3.583-2.707-1.235-5.046-2.676-7.015-4.324-1.97-1.647-3.446-3.747-4.43-6.3-.985-2.553-1.478-5.724-1.478-9.513 0-4.612.575-8.36 1.723-11.242 1.231-2.965 3.282-5.106 6.154-6.424 2.872-1.4 6.728-2.1 11.57-2.1 6.235 0 10.994 1.441 14.276 4.324 3.282 2.8 4.923 6.918 4.923 12.354v8.524H67.57v-5.065c0-3.789-.615-6.507-1.846-8.154-1.149-1.73-3.036-2.594-5.661-2.594-2.708 0-4.677.824-5.908 2.47-1.149 1.566-1.723 4.078-1.723 7.537 0 2.965.574 5.27 1.723 6.918 1.149 1.565 2.625 2.8 4.43 3.706a71.805 71.805 0 0 0 5.785 2.47c3.692 1.4 6.687 2.842 8.985 4.325 2.297 1.482 3.98 3.459 5.046 5.93 1.067 2.47 1.6 5.97 1.6 10.5 0 5.19-.862 9.307-2.585 12.354-1.64 2.965-4.02 5.107-7.138 6.424C67.24 96.341 63.63 97 59.447 97Z" fill="#fff"/><defs><linearGradient id="a" x1="23.729" y1="0" x2="126.942" y2="12.773" gradientUnits="userSpaceOnUse"><stop stop-color="#ED0233"/><stop offset="1" stop-color="#003EB7"/></linearGradient></defs></svg>